<svg version="1.1" xmlns="http://www.w3.org/2000/svg" xmlns:xlink="http://www.w3.org/1999/xlink" x="0px"
	 y="0px" width="300px" height="130px" viewBox="0 0 300 130" enable-background="new 0 0 300 130" xml:space="preserve">
<g>
	<path fill="#4D2465" d="M138.2,31.5c0.5-0.1,1.2-0.3,2-0.4c0.8-0.1,1.8-0.2,2.8-0.2c0.8,0,1.4,0.1,2,0.3c0.5,0.2,1,0.5,1.3,0.9
		c0.1-0.1,0.3-0.2,0.5-0.3c0.2-0.1,0.5-0.3,0.9-0.4c0.3-0.1,0.7-0.2,1.1-0.4c0.4-0.1,0.9-0.2,1.4-0.2c0.9,0,1.7,0.1,2.3,0.4
		c0.6,0.3,1.1,0.7,1.4,1.2c0.3,0.5,0.6,1.1,0.7,1.8c0.1,0.7,0.2,1.4,0.2,2.2v6.8h-2.2V37c0-0.7,0-1.3-0.1-1.9
		c-0.1-0.5-0.2-0.9-0.4-1.3c-0.2-0.3-0.5-0.6-0.8-0.8c-0.3-0.2-0.8-0.2-1.3-0.2c-0.7,0-1.3,0.1-1.8,0.3c-0.5,0.2-0.8,0.4-1,0.5
		c0.1,0.4,0.2,0.9,0.3,1.3c0.1,0.5,0.1,1,0.1,1.5v6.8h-2.2V37c0-0.7,0-1.3-0.1-1.9c-0.1-0.5-0.2-0.9-0.4-1.3
		c-0.2-0.3-0.5-0.6-0.8-0.8c-0.3-0.2-0.8-0.2-1.3-0.2c-0.2,0-0.5,0-0.7,0c-0.2,0-0.5,0-0.7,0.1c-0.2,0-0.4,0.1-0.6,0.1
		c-0.2,0-0.3,0.1-0.4,0.1v10.3h-2.2V31.5z"/>
	<path fill="#4D2465" d="M157.7,37.3c0-1.1,0.2-2,0.5-2.8c0.3-0.8,0.7-1.5,1.2-2c0.5-0.5,1.1-0.9,1.8-1.2c0.7-0.3,1.4-0.4,2.1-0.4
		c1.6,0,2.9,0.5,3.8,1.5c0.9,1,1.3,2.6,1.3,4.7c0,0.1,0,0.2,0,0.4c0,0.1,0,0.3,0,0.4h-8.3c0.1,1.3,0.5,2.2,1.1,2.9
		c0.6,0.7,1.6,1,3,1c0.8,0,1.4-0.1,1.9-0.2c0.5-0.1,0.9-0.3,1.2-0.4l0.3,1.8c-0.3,0.1-0.7,0.3-1.4,0.4c-0.7,0.2-1.4,0.2-2.3,0.2
		c-1.1,0-2-0.2-2.8-0.5c-0.8-0.3-1.4-0.8-1.9-1.3c-0.5-0.6-0.9-1.2-1.1-2C157.8,39.1,157.7,38.2,157.7,37.3z M166,36.1
		c0-1-0.2-1.8-0.7-2.4c-0.5-0.6-1.2-0.9-2.1-0.9c-0.5,0-0.9,0.1-1.3,0.3c-0.4,0.2-0.7,0.4-1,0.8c-0.3,0.3-0.5,0.7-0.6,1.1
		c-0.2,0.4-0.2,0.8-0.3,1.2H166z M166,26.6l-3.3,3.2l-1.1-1l3-3.6L166,26.6z"/>
	<path fill="#4D2465" d="M173.5,31.2h4.6V33h-4.6v5.6c0,0.6,0,1.1,0.1,1.5c0.1,0.4,0.2,0.7,0.4,0.9c0.2,0.2,0.4,0.4,0.7,0.5
		c0.3,0.1,0.6,0.1,1,0.1c0.7,0,1.2-0.1,1.6-0.2c0.4-0.1,0.7-0.3,0.8-0.3l0.4,1.8c-0.2,0.1-0.6,0.2-1.1,0.4c-0.5,0.2-1.2,0.2-1.9,0.2
		c-0.8,0-1.5-0.1-2-0.3c-0.5-0.2-1-0.5-1.3-0.9c-0.3-0.4-0.6-0.9-0.7-1.6c-0.1-0.6-0.2-1.3-0.2-2.1V27.8l2.2-0.4V31.2z"/>
	<path fill="#4D2465" d="M181.9,29c-0.4,0-0.7-0.1-1-0.4c-0.3-0.3-0.4-0.6-0.4-1c0-0.4,0.1-0.8,0.4-1c0.3-0.3,0.6-0.4,1-0.4
		c0.4,0,0.7,0.1,1,0.4c0.3,0.3,0.4,0.6,0.4,1c0,0.4-0.1,0.8-0.4,1C182.7,28.8,182.3,29,181.9,29z M183,43.4h-2.2V31.2h2.2V43.4z"/>
	<path fill="#4D2465" d="M186.1,37.3c0-1.1,0.2-2,0.5-2.8c0.3-0.8,0.7-1.5,1.2-2c0.5-0.5,1.1-0.9,1.8-1.2c0.7-0.3,1.4-0.4,2.1-0.4
		c1.6,0,2.9,0.5,3.8,1.5c0.9,1,1.3,2.6,1.3,4.7c0,0.1,0,0.2,0,0.4c0,0.1,0,0.3,0,0.4h-8.3c0.1,1.3,0.5,2.2,1.1,2.9
		c0.6,0.7,1.6,1,3,1c0.8,0,1.4-0.1,1.9-0.2c0.5-0.1,0.9-0.3,1.2-0.4l0.3,1.8c-0.3,0.1-0.7,0.3-1.4,0.4c-0.7,0.2-1.4,0.2-2.3,0.2
		c-1.1,0-2-0.2-2.8-0.5c-0.8-0.3-1.4-0.8-1.9-1.3c-0.5-0.6-0.9-1.2-1.1-2C186.2,39.1,186.1,38.2,186.1,37.3z M194.5,36.1
		c0-1-0.2-1.8-0.7-2.4c-0.5-0.6-1.2-0.9-2.1-0.9c-0.5,0-0.9,0.1-1.3,0.3c-0.4,0.2-0.7,0.4-1,0.8c-0.3,0.3-0.5,0.7-0.6,1.1
		c-0.2,0.4-0.2,0.8-0.3,1.2H194.5z"/>
	<path fill="#4D2465" d="M204.4,30.9c0.2,0,0.4,0,0.6,0c0.2,0,0.5,0.1,0.7,0.1c0.2,0,0.4,0.1,0.6,0.1c0.2,0,0.3,0.1,0.4,0.1
		l-0.4,1.9c-0.2-0.1-0.5-0.1-0.9-0.2c-0.4-0.1-0.9-0.1-1.5-0.1c-0.4,0-0.8,0-1.2,0.1c-0.4,0.1-0.7,0.1-0.8,0.2v10.2h-2.2V31.7
		c0.5-0.2,1.2-0.4,1.9-0.5C202.6,31,203.4,30.9,204.4,30.9z"/>
	<path fill="#4D2465" d="M211.8,41.8c0.9,0,1.5-0.1,2-0.4c0.4-0.2,0.6-0.6,0.6-1.1c0-0.5-0.2-1-0.6-1.3c-0.4-0.3-1.1-0.7-2.1-1.1
		c-0.5-0.2-0.9-0.4-1.3-0.6c-0.4-0.2-0.8-0.4-1.1-0.7c-0.3-0.3-0.6-0.6-0.8-1c-0.2-0.4-0.3-0.8-0.3-1.4c0-1.1,0.4-1.9,1.2-2.6
		c0.8-0.6,1.9-0.9,3.3-0.9c0.3,0,0.7,0,1,0.1c0.3,0,0.7,0.1,1,0.1c0.3,0.1,0.6,0.1,0.8,0.2c0.2,0.1,0.4,0.1,0.5,0.2l-0.4,1.9
		c-0.2-0.1-0.6-0.3-1.1-0.4c-0.5-0.1-1.1-0.2-1.8-0.2c-0.6,0-1.1,0.1-1.6,0.4c-0.5,0.2-0.7,0.6-0.7,1.1c0,0.3,0.1,0.5,0.2,0.7
		c0.1,0.2,0.3,0.4,0.5,0.6c0.2,0.2,0.5,0.3,0.8,0.5c0.3,0.1,0.7,0.3,1.1,0.4c0.6,0.2,1.1,0.4,1.5,0.6c0.5,0.2,0.8,0.5,1.2,0.7
		c0.3,0.3,0.6,0.6,0.7,1c0.2,0.4,0.3,0.9,0.3,1.5c0,1.1-0.4,2-1.3,2.6c-0.8,0.6-2,0.9-3.6,0.9c-1.1,0-1.9-0.1-2.5-0.3
		c-0.6-0.2-1-0.3-1.2-0.4l0.4-1.9c0.2,0.1,0.6,0.2,1.2,0.4C210.1,41.7,210.9,41.8,211.8,41.8z"/>
	<path fill="#4D2465" d="M145.5,64.6c-0.4,0.1-1,0.2-1.6,0.4c-0.6,0.1-1.3,0.2-2,0.2c-0.7,0-1.4-0.1-2-0.3c-0.6-0.2-1.1-0.5-1.5-1
		c-0.4-0.4-0.7-0.9-0.9-1.5c-0.2-0.6-0.3-1.3-0.3-2c0-0.7,0.1-1.4,0.3-2c0.2-0.6,0.5-1.1,0.8-1.5c0.4-0.4,0.8-0.8,1.3-1
		c0.5-0.2,1.1-0.3,1.8-0.3c0.5,0,0.8,0.1,1.2,0.2c0.3,0.1,0.6,0.2,0.9,0.4v-4.5l2.2-0.4V64.6z M139.4,60.2c0,1,0.2,1.7,0.7,2.2
		c0.5,0.5,1.1,0.8,1.9,0.8c0.3,0,0.6,0,0.9,0c0.2,0,0.4-0.1,0.6-0.1v-5.3c-0.2-0.1-0.4-0.3-0.8-0.4c-0.3-0.1-0.7-0.2-1-0.2
		c-0.8,0-1.4,0.3-1.7,0.8C139.5,58.6,139.4,59.3,139.4,60.2z"/>
	<path fill="#4D2465" d="M155.9,64.6c-0.4,0.1-1,0.2-1.6,0.3c-0.7,0.1-1.4,0.2-2.2,0.2c-0.7,0-1.4-0.1-1.9-0.3
		c-0.5-0.2-0.9-0.5-1.2-0.9c-0.3-0.4-0.5-0.8-0.6-1.4c-0.1-0.5-0.2-1.1-0.2-1.7v-5.2h2.2v4.9c0,1,0.1,1.7,0.4,2.1
		c0.3,0.4,0.8,0.6,1.5,0.6c0.3,0,0.5,0,0.8,0c0.3,0,0.5-0.1,0.6-0.1v-7.5h2.2V64.6z"/>
	<path fill="#4D2465" d="M163.3,53.1c0.5-0.1,1.2-0.3,2-0.4c0.8-0.1,1.8-0.2,2.8-0.2c0.8,0,1.4,0.1,2,0.3c0.5,0.2,1,0.5,1.3,0.9
		c0.1-0.1,0.3-0.2,0.5-0.3c0.2-0.1,0.5-0.3,0.9-0.4c0.3-0.1,0.7-0.2,1.1-0.4c0.4-0.1,0.9-0.2,1.4-0.2c0.9,0,1.7,0.1,2.3,0.4
		c0.6,0.3,1.1,0.7,1.4,1.2c0.3,0.5,0.6,1.1,0.7,1.8c0.1,0.7,0.2,1.4,0.2,2.2v6.8h-2.2v-6.4c0-0.7,0-1.3-0.1-1.9
		c-0.1-0.5-0.2-0.9-0.4-1.3c-0.2-0.3-0.5-0.6-0.8-0.8c-0.3-0.2-0.8-0.2-1.3-0.2c-0.7,0-1.3,0.1-1.8,0.3c-0.5,0.2-0.8,0.4-1,0.5
		c0.1,0.4,0.2,0.9,0.3,1.3c0.1,0.5,0.1,1,0.1,1.5v6.8h-2.2v-6.4c0-0.7,0-1.3-0.1-1.9c-0.1-0.5-0.2-0.9-0.4-1.3
		c-0.2-0.3-0.5-0.6-0.8-0.8c-0.3-0.2-0.8-0.2-1.3-0.2c-0.2,0-0.5,0-0.7,0c-0.3,0-0.5,0-0.7,0.1c-0.2,0-0.4,0.1-0.6,0.1
		c-0.2,0-0.3,0.1-0.4,0.1v10.3h-2.2V53.1z"/>
	<path fill="#4D2465" d="M193.2,64.6c-0.5,0.1-1.2,0.3-2,0.4c-0.8,0.1-1.8,0.2-2.8,0.2c-0.9,0-1.7-0.1-2.4-0.4
		c-0.6-0.3-1.2-0.7-1.5-1.2s-0.7-1.1-0.8-1.8c-0.2-0.7-0.3-1.4-0.3-2.3v-6.8h2.2v6.4c0,1.5,0.2,2.5,0.7,3.2c0.5,0.6,1.3,1,2.4,1
		c0.2,0,0.5,0,0.7,0c0.3,0,0.5,0,0.7-0.1c0.2,0,0.4,0,0.6-0.1c0.2,0,0.3-0.1,0.4-0.1V52.7h2.2V64.6z"/>
	<path fill="#4D2465" d="M200.6,65.1c-1.3,0-2.3-0.3-2.9-0.9c-0.6-0.5-0.8-1.4-0.8-2.6V47.1l2.2-0.4v14.6c0,0.4,0,0.7,0.1,0.9
		c0.1,0.2,0.2,0.4,0.3,0.6c0.1,0.1,0.3,0.2,0.6,0.3c0.2,0.1,0.5,0.1,0.9,0.2L200.6,65.1z"/>
	<path fill="#4D2465" d="M205.4,52.7h4.6v1.8h-4.6v5.6c0,0.6,0,1.1,0.1,1.5c0.1,0.4,0.2,0.7,0.4,0.9c0.2,0.2,0.4,0.4,0.7,0.5
		c0.3,0.1,0.6,0.1,1,0.1c0.7,0,1.2-0.1,1.6-0.2c0.4-0.1,0.7-0.3,0.8-0.3l0.4,1.8c-0.2,0.1-0.6,0.2-1.1,0.4c-0.5,0.2-1.2,0.2-1.9,0.2
		c-0.8,0-1.5-0.1-2.1-0.3c-0.5-0.2-1-0.5-1.3-0.9c-0.3-0.4-0.6-0.9-0.7-1.6c-0.1-0.6-0.2-1.3-0.2-2.1V49.3l2.2-0.4V52.7z"/>
	<path fill="#4D2465" d="M213.8,50.5c-0.4,0-0.7-0.1-1-0.4c-0.3-0.3-0.4-0.6-0.4-1c0-0.4,0.1-0.8,0.4-1c0.3-0.3,0.6-0.4,1-0.4
		c0.4,0,0.7,0.1,1,0.4c0.3,0.3,0.4,0.6,0.4,1c0,0.4-0.1,0.8-0.4,1C214.6,50.4,214.2,50.5,213.8,50.5z M214.9,64.9h-2.2V52.7h2.2
		V64.9z"/>
	<path fill="#4D2465" d="M218.7,53.1c0.5-0.1,1.2-0.3,2-0.4c0.8-0.1,1.8-0.2,2.8-0.2c0.8,0,1.4,0.1,2,0.3c0.5,0.2,1,0.5,1.3,0.9
		c0.1-0.1,0.3-0.2,0.5-0.3c0.2-0.1,0.5-0.3,0.9-0.4c0.3-0.1,0.7-0.2,1.1-0.4c0.4-0.1,0.9-0.2,1.4-0.2c0.9,0,1.7,0.1,2.3,0.4
		c0.6,0.3,1.1,0.7,1.4,1.2c0.3,0.5,0.6,1.1,0.7,1.8c0.1,0.7,0.2,1.4,0.2,2.2v6.8h-2.2v-6.4c0-0.7,0-1.3-0.1-1.9
		c-0.1-0.5-0.2-0.9-0.4-1.3c-0.2-0.3-0.5-0.6-0.8-0.8c-0.3-0.2-0.8-0.2-1.3-0.2c-0.7,0-1.3,0.1-1.8,0.3c-0.5,0.2-0.8,0.4-1,0.5
		c0.1,0.4,0.2,0.9,0.3,1.3c0.1,0.5,0.1,1,0.1,1.5v6.8h-2.2v-6.4c0-0.7,0-1.3-0.1-1.9c-0.1-0.5-0.2-0.9-0.4-1.3
		c-0.2-0.3-0.5-0.6-0.8-0.8c-0.3-0.2-0.8-0.2-1.3-0.2c-0.2,0-0.5,0-0.7,0c-0.2,0-0.5,0-0.7,0.1c-0.2,0-0.4,0.1-0.6,0.1
		c-0.2,0-0.3,0.1-0.4,0.1v10.3h-2.2V53.1z"/>
	<path fill="#4D2465" d="M238.2,58.8c0-1.1,0.2-2,0.5-2.8c0.3-0.8,0.7-1.5,1.2-2c0.5-0.5,1.1-0.9,1.8-1.2c0.7-0.3,1.4-0.4,2.1-0.4
		c1.6,0,2.9,0.5,3.8,1.5c0.9,1,1.3,2.6,1.3,4.7c0,0.1,0,0.2,0,0.4c0,0.1,0,0.3,0,0.4h-8.3c0.1,1.3,0.5,2.2,1.1,2.9
		c0.6,0.7,1.6,1,3,1c0.8,0,1.4-0.1,1.9-0.2c0.5-0.1,0.9-0.3,1.2-0.4l0.3,1.8c-0.3,0.1-0.7,0.3-1.4,0.4c-0.7,0.2-1.4,0.2-2.3,0.2
		c-1.1,0-2-0.2-2.8-0.5c-0.8-0.3-1.4-0.8-1.9-1.3c-0.5-0.6-0.9-1.2-1.1-2C238.3,60.6,238.2,59.8,238.2,58.8z M246.6,57.6
		c0-1-0.2-1.8-0.7-2.4c-0.5-0.6-1.2-0.9-2.1-0.9c-0.5,0-0.9,0.1-1.3,0.3c-0.4,0.2-0.7,0.4-1,0.8c-0.3,0.3-0.5,0.7-0.6,1.1
		c-0.2,0.4-0.2,0.8-0.3,1.2H246.6z M246.5,48.1l-3.3,3.2l-1.1-1l3-3.6L246.5,48.1z"/>
	<path fill="#4D2465" d="M259.8,47.1l2.2-0.4v17.8c-0.5,0.1-1.1,0.3-1.9,0.4c-0.8,0.1-1.7,0.2-2.7,0.2c-0.9,0-1.8-0.1-2.5-0.4
		c-0.7-0.3-1.4-0.7-1.9-1.3c-0.5-0.5-0.9-1.2-1.2-2c-0.3-0.8-0.4-1.7-0.4-2.7c0-0.9,0.1-1.8,0.4-2.6c0.2-0.8,0.6-1.5,1.1-2
		c0.5-0.6,1-1,1.7-1.3c0.7-0.3,1.5-0.5,2.3-0.5c0.7,0,1.3,0.1,1.9,0.3c0.5,0.2,0.9,0.4,1.2,0.5V47.1z M259.8,55.3
		c-0.3-0.2-0.6-0.4-1.1-0.6c-0.5-0.2-1-0.3-1.6-0.3c-0.6,0-1.2,0.1-1.6,0.3c-0.4,0.2-0.8,0.5-1.1,0.9c-0.3,0.4-0.5,0.9-0.6,1.4
		c-0.1,0.5-0.2,1.1-0.2,1.8c0,1.4,0.4,2.5,1.1,3.3c0.7,0.8,1.6,1.2,2.8,1.2c0.6,0,1.1,0,1.5-0.1c0.4-0.1,0.7-0.1,0.9-0.2V55.3z"/>
	<path fill="#4D2465" d="M266.8,50.5c-0.4,0-0.7-0.1-1-0.4c-0.3-0.3-0.4-0.6-0.4-1c0-0.4,0.1-0.8,0.4-1c0.3-0.3,0.6-0.4,1-0.4
		c0.4,0,0.7,0.1,1,0.4c0.3,0.3,0.4,0.6,0.4,1c0,0.4-0.1,0.8-0.4,1C267.6,50.4,267.2,50.5,266.8,50.5z M267.9,64.9h-2.2V52.7h2.2
		V64.9z"/>
	<path fill="#4D2465" d="M275.6,52.4c0.9,0,1.6,0.1,2.2,0.3c0.6,0.2,1.1,0.5,1.5,1c0.4,0.4,0.6,0.9,0.8,1.5c0.2,0.6,0.2,1.2,0.2,1.9
		v7.6c-0.2,0-0.5,0.1-0.8,0.1c-0.3,0.1-0.7,0.1-1.1,0.2c-0.4,0-0.9,0.1-1.4,0.1c-0.5,0-1,0.1-1.5,0.1c-0.7,0-1.3-0.1-1.9-0.2
		c-0.6-0.1-1.1-0.4-1.5-0.7c-0.4-0.3-0.7-0.7-1-1.2c-0.2-0.5-0.4-1.1-0.4-1.8c0-0.7,0.1-1.2,0.4-1.7c0.3-0.5,0.6-0.9,1.1-1.2
		c0.5-0.3,1-0.5,1.6-0.7c0.6-0.1,1.3-0.2,2-0.2c0.2,0,0.4,0,0.7,0c0.2,0,0.5,0.1,0.7,0.1c0.2,0,0.4,0.1,0.5,0.1
		c0.2,0,0.3,0.1,0.3,0.1v-0.6c0-0.4,0-0.7-0.1-1.1c-0.1-0.4-0.2-0.7-0.4-0.9c-0.2-0.3-0.5-0.5-0.8-0.7c-0.4-0.2-0.8-0.2-1.4-0.2
		c-0.7,0-1.3,0.1-1.9,0.2c-0.5,0.1-0.9,0.2-1.2,0.3l-0.3-1.8c0.3-0.1,0.7-0.2,1.4-0.4C274.2,52.5,274.9,52.4,275.6,52.4z
		 M275.8,63.3c0.5,0,1,0,1.4,0c0.4,0,0.7-0.1,1-0.1v-3.6c-0.2-0.1-0.4-0.1-0.8-0.2c-0.4-0.1-0.8-0.1-1.3-0.1c-0.3,0-0.7,0-1,0.1
		c-0.4,0-0.7,0.1-1,0.3c-0.3,0.1-0.6,0.4-0.8,0.6c-0.2,0.3-0.3,0.6-0.3,1c0,0.8,0.2,1.3,0.7,1.6C274.3,63.2,275,63.3,275.8,63.3z"/>
	<path fill="#4D2465" d="M137.2,81.9c0-0.8,0.1-1.5,0.4-2.2c0.2-0.6,0.6-1.1,1-1.5c0.4-0.4,0.9-0.7,1.4-0.9c0.5-0.2,1.1-0.3,1.6-0.3
		c1.3,0,2.3,0.4,3,1.2c0.7,0.8,1.1,2,1.1,3.6c0,0.1,0,0.3,0,0.4c0,0.1,0,0.3,0,0.4h-6.1c0.1,0.7,0.3,1.3,0.8,1.7
		c0.5,0.4,1.1,0.6,2,0.6c0.5,0,1,0,1.4-0.1c0.4-0.1,0.8-0.2,1-0.3l0.3,1.8c-0.1,0.1-0.3,0.1-0.5,0.2c-0.2,0.1-0.4,0.1-0.7,0.2
		c-0.3,0.1-0.6,0.1-0.9,0.1c-0.3,0-0.6,0.1-0.9,0.1c-0.8,0-1.5-0.1-2.1-0.4c-0.6-0.2-1.1-0.6-1.5-1c-0.4-0.4-0.7-0.9-0.9-1.5
		C137.2,83.2,137.2,82.6,137.2,81.9z M143.4,80.9c0-0.3,0-0.6-0.1-0.8c-0.1-0.3-0.2-0.5-0.4-0.7c-0.2-0.2-0.4-0.3-0.6-0.5
		c-0.2-0.1-0.5-0.2-0.8-0.2c-0.3,0-0.6,0.1-0.9,0.2c-0.2,0.1-0.5,0.3-0.6,0.5c-0.2,0.2-0.3,0.4-0.4,0.7c-0.1,0.3-0.2,0.5-0.2,0.8
		H143.4z"/>
	<path fill="#4D2465" d="M147.7,74.7l2.2-0.4v2.8h3.3V79h-3.3v3.8c0,0.7,0.1,1.3,0.4,1.6c0.2,0.3,0.6,0.5,1.2,0.5c0.4,0,0.7,0,1-0.1
		c0.3-0.1,0.5-0.2,0.7-0.2l0.4,1.7c-0.3,0.1-0.6,0.2-1,0.3c-0.4,0.1-0.9,0.2-1.4,0.2c-0.7,0-1.2-0.1-1.7-0.3
		c-0.4-0.2-0.8-0.4-1.1-0.8c-0.3-0.3-0.4-0.7-0.6-1.2c-0.1-0.5-0.2-1-0.2-1.6V74.7z"/>
	<path fill="#4D2465" d="M167.3,86.2c-0.4,0.1-1,0.3-1.6,0.4c-0.6,0.1-1.3,0.2-2,0.2c-0.7,0-1.4-0.1-2-0.3c-0.6-0.2-1.1-0.5-1.5-1
		c-0.4-0.4-0.7-0.9-0.9-1.5c-0.2-0.6-0.3-1.3-0.3-2c0-0.7,0.1-1.4,0.3-2c0.2-0.6,0.5-1.1,0.8-1.5c0.4-0.4,0.8-0.8,1.3-1
		c0.5-0.2,1.1-0.3,1.8-0.3c0.5,0,0.8,0.1,1.2,0.2c0.3,0.1,0.6,0.2,0.9,0.4V73l2.2-0.4V86.2z M161.1,81.8c0,1,0.2,1.7,0.7,2.2
		c0.5,0.5,1.1,0.8,1.9,0.8c0.3,0,0.6,0,0.9,0c0.2,0,0.4-0.1,0.6-0.1v-5.3c-0.2-0.1-0.4-0.3-0.8-0.4c-0.3-0.1-0.6-0.2-1-0.2
		c-0.8,0-1.4,0.3-1.7,0.8C161.3,80.1,161.1,80.9,161.1,81.8z"/>
	<path fill="#4D2465" d="M169.5,81.9c0-0.8,0.1-1.5,0.4-2.2c0.2-0.6,0.6-1.1,1-1.5c0.4-0.4,0.9-0.7,1.4-0.9c0.5-0.2,1.1-0.3,1.6-0.3
		c1.3,0,2.3,0.4,3,1.2c0.7,0.8,1.1,2,1.1,3.6c0,0.1,0,0.3,0,0.4c0,0.1,0,0.3,0,0.4h-6.1c0.1,0.7,0.3,1.3,0.8,1.7
		c0.5,0.4,1.1,0.6,2,0.6c0.5,0,1,0,1.4-0.1c0.4-0.1,0.8-0.2,1-0.3l0.3,1.8c-0.1,0.1-0.3,0.1-0.5,0.2c-0.2,0.1-0.4,0.1-0.7,0.2
		c-0.3,0.1-0.6,0.1-0.9,0.1c-0.3,0-0.6,0.1-0.9,0.1c-0.8,0-1.5-0.1-2.1-0.4c-0.6-0.2-1.1-0.6-1.5-1c-0.4-0.4-0.7-0.9-0.9-1.5
		C169.6,83.2,169.5,82.6,169.5,81.9z M175.8,80.9c0-0.3,0-0.6-0.1-0.8c-0.1-0.3-0.2-0.5-0.4-0.7c-0.2-0.2-0.4-0.3-0.6-0.5
		c-0.2-0.1-0.5-0.2-0.8-0.2c-0.3,0-0.6,0.1-0.9,0.2c-0.3,0.1-0.5,0.3-0.6,0.5c-0.2,0.2-0.3,0.4-0.4,0.7c-0.1,0.3-0.2,0.5-0.2,0.8
		H175.8z"/>
	<path fill="#4D2465" d="M188.5,86.7c-1.3,0-2.3-0.3-2.9-0.9c-0.6-0.5-0.8-1.4-0.8-2.6V68.7l2.2-0.4v14.6c0,0.4,0,0.7,0.1,0.9
		c0.1,0.2,0.2,0.4,0.3,0.6c0.1,0.1,0.3,0.2,0.6,0.3c0.2,0.1,0.5,0.1,0.9,0.2L188.5,86.7z"/>
	<path fill="#4D2465" d="M193.5,68.9c0,0.2,0,0.3,0,0.5c0,0.2,0,0.3,0,0.5c-0.1,0.8-0.2,1.6-0.5,2.4c-0.3,0.8-0.7,1.5-1.1,2.2
		l-1.7-0.5c0.3-0.7,0.6-1.4,0.7-2.1c0.2-0.7,0.2-1.3,0.2-2c0-0.2,0-0.3,0-0.5c0-0.2,0-0.4,0-0.5H193.5z"/>
	<path fill="#4D2465" d="M197.8,72.1c-0.4,0-0.7-0.1-1-0.4c-0.3-0.3-0.4-0.6-0.4-1s0.1-0.8,0.4-1c0.3-0.3,0.6-0.4,1-0.4
		c0.4,0,0.7,0.1,1,0.4c0.3,0.3,0.4,0.6,0.4,1s-0.1,0.8-0.4,1C198.6,72,198.2,72.1,197.8,72.1z M199,86.5h-2.2V74.3h2.2V86.5z"/>
	<path fill="#4D2465" d="M202.7,74.6c0.5-0.1,1.2-0.3,2-0.4c0.8-0.1,1.8-0.2,2.9-0.2c1,0,1.8,0.1,2.4,0.4c0.6,0.3,1.2,0.7,1.5,1.1
		c0.4,0.5,0.7,1.1,0.8,1.8c0.2,0.7,0.2,1.4,0.2,2.3v6.8h-2.2v-6.4c0-0.7-0.1-1.4-0.2-1.9c-0.1-0.5-0.3-1-0.5-1.3
		c-0.2-0.3-0.5-0.6-0.9-0.7c-0.4-0.1-0.9-0.2-1.5-0.2c-0.2,0-0.5,0-0.7,0c-0.2,0-0.5,0-0.7,0.1c-0.2,0-0.4,0.1-0.6,0.1
		c-0.2,0-0.3,0.1-0.4,0.1v10.3h-2.2V74.6z"/>
	<path fill="#4D2465" d="M218.2,74.3h4.6v1.8h-4.6v5.6c0,0.6,0,1.1,0.1,1.5c0.1,0.4,0.2,0.7,0.4,0.9c0.2,0.2,0.4,0.4,0.7,0.5
		c0.3,0.1,0.6,0.1,1,0.1c0.7,0,1.2-0.1,1.6-0.2c0.4-0.1,0.7-0.3,0.8-0.3l0.4,1.8c-0.2,0.1-0.6,0.2-1.1,0.4c-0.5,0.2-1.2,0.2-1.9,0.2
		c-0.8,0-1.5-0.1-2-0.3c-0.5-0.2-1-0.5-1.3-0.9c-0.3-0.4-0.6-0.9-0.7-1.6c-0.1-0.6-0.2-1.3-0.2-2.1V70.9l2.2-0.4V74.3z"/>
	<path fill="#4D2465" d="M224.7,80.4c0-1.1,0.2-2,0.5-2.8c0.3-0.8,0.7-1.5,1.2-2c0.5-0.5,1.1-0.9,1.8-1.2c0.7-0.3,1.4-0.4,2.1-0.4
		c1.6,0,2.9,0.5,3.8,1.5c0.9,1,1.3,2.6,1.3,4.7c0,0.1,0,0.2,0,0.4c0,0.1,0,0.3,0,0.4h-8.3c0.1,1.3,0.5,2.2,1.1,2.9
		c0.6,0.7,1.6,1,3,1c0.8,0,1.4-0.1,1.9-0.2c0.5-0.1,0.9-0.3,1.2-0.4l0.3,1.8c-0.3,0.1-0.7,0.3-1.4,0.4c-0.7,0.2-1.4,0.2-2.3,0.2
		c-1.1,0-2-0.2-2.8-0.5c-0.8-0.3-1.4-0.8-1.9-1.3c-0.5-0.6-0.9-1.2-1.1-2C224.8,82.2,224.7,81.3,224.7,80.4z M233,79.2
		c0-1-0.2-1.8-0.7-2.4c-0.5-0.6-1.2-0.9-2.1-0.9c-0.5,0-0.9,0.1-1.3,0.3s-0.7,0.5-1,0.8c-0.3,0.3-0.5,0.7-0.6,1.1
		c-0.2,0.4-0.2,0.8-0.3,1.2H233z"/>
	<path fill="#4D2465" d="M242.9,74c0.2,0,0.4,0,0.6,0c0.2,0,0.5,0.1,0.7,0.1c0.2,0,0.4,0.1,0.6,0.1c0.2,0,0.3,0.1,0.4,0.1l-0.4,1.9
		c-0.2-0.1-0.5-0.1-0.9-0.2c-0.4-0.1-0.9-0.1-1.5-0.1c-0.4,0-0.8,0-1.2,0.1c-0.4,0.1-0.7,0.1-0.8,0.2v10.2h-2.2V74.8
		c0.5-0.2,1.2-0.4,1.9-0.5C241.1,74.1,242,74,242.9,74z"/>
	<path fill="#4D2465" d="M247.5,74.6c0.5-0.1,1.2-0.3,2-0.4c0.8-0.1,1.8-0.2,2.9-0.2c1,0,1.8,0.1,2.4,0.4c0.6,0.3,1.2,0.7,1.5,1.1
		c0.4,0.5,0.7,1.1,0.8,1.8c0.2,0.7,0.2,1.4,0.2,2.3v6.8h-2.2v-6.4c0-0.7-0.1-1.4-0.2-1.9c-0.1-0.5-0.3-1-0.5-1.3
		c-0.2-0.3-0.5-0.6-0.9-0.7c-0.4-0.1-0.9-0.2-1.5-0.2c-0.2,0-0.5,0-0.7,0c-0.2,0-0.5,0-0.7,0.1c-0.2,0-0.4,0.1-0.6,0.1
		c-0.2,0-0.3,0.1-0.4,0.1v10.3h-2.2V74.6z"/>
	<path fill="#4D2465" d="M260.3,80.4c0-1.1,0.2-2,0.5-2.8c0.3-0.8,0.7-1.5,1.2-2c0.5-0.5,1.1-0.9,1.8-1.2c0.7-0.3,1.4-0.4,2.1-0.4
		c1.6,0,2.9,0.5,3.8,1.5c0.9,1,1.3,2.6,1.3,4.7c0,0.1,0,0.2,0,0.4c0,0.1,0,0.3,0,0.4h-8.3c0.1,1.3,0.5,2.2,1.1,2.9
		c0.6,0.7,1.6,1,3,1c0.8,0,1.4-0.1,1.9-0.2c0.5-0.1,0.9-0.3,1.2-0.4l0.3,1.8c-0.3,0.1-0.7,0.3-1.4,0.4c-0.7,0.2-1.4,0.2-2.3,0.2
		c-1.1,0-2-0.2-2.8-0.5c-0.8-0.3-1.4-0.8-1.9-1.3c-0.5-0.6-0.9-1.2-1.1-2C260.4,82.2,260.3,81.3,260.3,80.4z M268.6,79.2
		c0-1-0.2-1.8-0.7-2.4c-0.5-0.6-1.2-0.9-2.1-0.9c-0.5,0-0.9,0.1-1.3,0.3c-0.4,0.2-0.7,0.5-1,0.8c-0.3,0.3-0.5,0.7-0.6,1.1
		c-0.2,0.4-0.2,0.8-0.3,1.2H268.6z"/>
	<path fill="#4D2465" d="M276.1,74.3h4.6v1.8h-4.6v5.6c0,0.6,0,1.1,0.1,1.5c0.1,0.4,0.2,0.7,0.4,0.9c0.2,0.2,0.4,0.4,0.7,0.5
		c0.3,0.1,0.6,0.1,1,0.1c0.7,0,1.2-0.1,1.6-0.2c0.4-0.1,0.7-0.3,0.8-0.3l0.4,1.8c-0.2,0.1-0.6,0.2-1.1,0.4c-0.5,0.2-1.2,0.2-1.9,0.2
		c-0.8,0-1.5-0.1-2-0.3c-0.5-0.2-1-0.5-1.3-0.9c-0.3-0.4-0.6-0.9-0.7-1.6c-0.1-0.6-0.2-1.3-0.2-2.1V70.9l2.2-0.4V74.3z"/>
</g>
<rect x="137.1" y="100.1" fill="#4D2465" width="144.4" height="0.7"/>
<g>
	<polygon fill="#4D2465" points="89.7,72.1 84.3,77.4 90.2,79 93.1,78.3 92.4,72.1 	"/>
	<path fill="#4D2465" d="M97.2,40L89,41.5l0.6,5c0.3-0.1,0.7-0.2,1.1-0.2c0.6,0,1.2,0.1,1.7,0.4L97.2,40z"/>
	<path fill="#4D2465" d="M90.7,54.6C90.6,54.6,90.6,54.6,90.7,54.6l0.3,3.1h1.4l-1-3.2C91.2,54.5,90.9,54.6,90.7,54.6z"/>
	<polygon fill="#4D2465" points="93.9,84.4 93.4,80.3 90.9,79.6 79.1,82.5 81.3,90.4 	"/>
	<polygon fill="#4D2465" points="91.6,79.4 93.3,79.9 93.2,79.1 	"/>
	<polygon fill="#4D2465" points="81.7,42.5 87.5,41.4 87,39.5 	"/>
	<polygon fill="#4D2465" points="88,41.7 89.1,45.4 88.6,41.6 	"/>
	<polygon fill="#4D2465" points="87.3,39.4 87.9,41.4 88.6,41.2 88.3,38.8 	"/>
	<polygon fill="#4D2465" points="69.1,96.2 80.9,90.5 78.8,82.7 66.9,94.2 	"/>
	<path fill="#4D2465" d="M70.1,49.4l1.4,5.2L86.6,51c0,0,0,0,0-0.1L70.1,49.4z"/>
	<path fill="#4D2465" d="M73.4,61.7l2.4,8.8v-6.9c0-1.2-0.5-2-1.7-2C73.9,61.6,73.6,61.6,73.4,61.7z"/>
	<path fill="#4D2465" d="M71.6,55l1.2,4.2c1.4-1.2,2.9-1.8,4.8-1.8c3.2,0,5,1.5,5.4,4l4.8-8c-0.6-0.5-1-1.2-1.2-2L71.6,55z"/>
	<polygon fill="#4D2465" points="69.6,49.3 56.4,56.8 56.5,57.7 58.6,57.7 71.1,54.7 69.7,49.3 	"/>
	<polygon fill="#4D2465" points="78.6,81.9 76.9,75.7 75.2,75.2 69.8,84 	"/>
	<path fill="#4D2465" d="M76.1,72.9l-3-11.1c-0.8,0.4-1.1,1.3-1.1,2.2v8.1h-6.3l9.3,2.6L76.1,72.9z"/>
	<path fill="#4D2465" d="M80.7,43.1l-10,5.6l15.9,1.5c0-0.6,0.2-1.2,0.5-1.8l-6-5.5L80.7,43.1z"/>
	<polygon fill="#4D2465" points="68.7,96.3 66.6,94.5 61,100 	"/>
	<polygon fill="#4D2465" points="68.8,85 59.2,87.4 64.5,92.1 	"/>
	<polygon fill="#4D2465" points="78.2,82.7 69.3,84.9 64.8,92.4 66.6,94 	"/>
	<polygon fill="#4D2465" points="69.3,84.1 74.8,75.1 60.7,71.1 60.7,72.1 57.5,72.1 58.6,86.7 	"/>
	<polygon fill="#4D2465" points="69,96.6 61,100.4 70.5,98 	"/>
	<polygon fill="#4D2465" points="83.4,99.6 82.3,95.3 71.3,98.1 76.2,102.5 	"/>
	<polygon fill="#4D2465" points="69.9,48.6 70.1,48.6 79.6,43.3 68.9,45.2 	"/>
	<polygon fill="#4D2465" points="82.2,95 81,90.9 69.4,96.4 71,97.8 	"/>
	<path fill="#4D2465" d="M82,42.8l5.5,5c0.4-0.5,0.9-0.9,1.5-1.2l-1.5-4.9L82,42.8z"/>
	<polygon fill="#4D2465" points="56.1,57.7 56.1,57 54.8,57.7 	"/>
	<polygon fill="#4D2465" points="93.9,84.8 81.4,90.7 82.5,94.9 94.8,91.7 	"/>
	<path fill="#4D2465" d="M49.5,62.9v0.4l1.3-3.3l-1.6,0.9C49.4,61.5,49.5,62.1,49.5,62.9z"/>
	<polygon fill="#4D2465" points="57.1,47.4 69.5,48.6 68.6,45.3 	"/>
	<polygon fill="#4D2465" points="51.5,59.1 56,56.6 55.5,48.9 	"/>
	<polygon fill="#4D2465" points="49.5,64.3 49.5,67.5 53.4,68.6 53.4,59.3 51.2,59.8 	"/>
	<polygon fill="#4D2465" points="53.4,58.5 52.1,59.2 53.4,58.9 	"/>
	<path fill="#4D2465" d="M95.2,95.1l-11.3,4.6l3.4,12.6c3.3-1.2,6.5-2.7,9.5-4.6L95.2,95.1z"/>
	<polygon fill="#4D2465" points="25.1,57.7 22.6,55.4 24.4,57.7 	"/>
	<path fill="#4D2465" d="M27.7,62.2C27.2,62.7,27,63.3,27,64v1.2l2.5-0.6L27.7,62.2z"/>
	<polygon fill="#4D2465" points="63.2,26.8 63.3,26.8 53.7,18 54.3,26.4 	"/>
	<path fill="#4D2465" d="M27.3,59.6l-1.2-1.1l0.2,2.2l0.3-0.4C26.8,60.1,27.1,59.8,27.3,59.6z"/>
	<path fill="#4D2465" d="M36.4,58.8c0.5,0.5,1,1.2,1.2,2c1.8-2.2,3.7-3.3,6.3-3.3c2.5,0,4.1,1,4.9,2.5l1.9-0.5l0.2-0.1L55.4,48
		l0-0.1l-1.1-0.1l-14.6,2.7L36.4,58.8z"/>
	<polygon fill="#4D2465" points="40,50.1 53,47.7 41.4,46.6 	"/>
	<polygon fill="#4D2465" points="99.5,82.1 94.3,84.6 95.1,91.6 98.6,90.7 	"/>
	<polygon fill="#4D2465" points="98.5,91.1 95.2,92 95.5,94.6 98.3,93.5 	"/>
	<path fill="#4D2465" d="M23.9,57.7L21,54c-0.3,1.2-0.5,2.4-0.7,3.7H23.9z"/>
	<path fill="#4D2465" d="M21.3,77.3c0.8,3.1,1.9,6.1,3.2,9l5.7-13.7L21.3,77.3z"/>
	<polygon fill="#4D2465" points="98.2,93.9 95.6,95 96.9,106.1 	"/>
	<path fill="#4D2465" d="M30.9,63.6c0-0.4-0.1-0.7-0.2-1l0-0.1c-0.2-0.5-0.7-0.9-1.5-0.9c-0.5,0-0.9,0.1-1.3,0.4l2,2.5l1-0.2V63.6z"
		/>
	<polygon fill="#4D2465" points="49.9,26.2 53.9,26.4 53.3,18.1 	"/>
	<polygon fill="#4D2465" points="30.9,64.6 30.2,64.8 30.9,65.7 	"/>
	<path fill="#4D2465" d="M36.1,58.5l3.3-7.9l-17.9,3.3l4.3,3.8L26,58l1.6,1.4c1.3-1.2,2.9-1.9,5.1-1.9
		C34.1,57.4,35.2,57.8,36.1,58.5z"/>
	<path fill="#4D2465" d="M90.6,57.7l-0.4-3.2c-0.8-0.1-1.5-0.4-2.1-0.8L83.1,62c0,0.3,0.1,0.5,0.1,0.8v9.2H77l-0.5,0.8l0.7,2.4
		l6.7,1.9l5.3-5.2h-2.1V57.7H90.6z"/>
	<polygon fill="#4D2465" points="94.4,72.1 92.7,72.1 93.5,78.2 98.2,77.1 95.1,66.8 94.4,67.5 	"/>
	<path fill="#4D2465" d="M60.7,64v6.7l3.9,1.1v-8.2c0-1.2-0.5-2-1.7-2C61.4,61.6,60.7,62.8,60.7,64z"/>
	<polygon fill="#4D2465" points="94.4,67 95,66.4 94.4,64.3 	"/>
	<path fill="#4D2465" d="M71.3,60.8c0.4-0.5,0.8-0.9,1.2-1.3l-1.2-4.4l-11.5,2.7l0.3,2.9c1.7-2,3.4-3.3,6.4-3.3
		C68.9,57.4,70.6,58.7,71.3,60.8z"/>
	<polygon fill="#4D2465" points="84,77.7 80,81.5 89.4,79.2 	"/>
	<polygon fill="#4D2465" points="75.4,74.8 76.8,75.2 76.3,73.4 	"/>
	<polygon fill="#4D2465" points="78.9,81.8 79.3,81.7 83.5,77.5 77.3,75.8 	"/>
	<polygon fill="#4D2465" points="49.9,88.9 58,86.9 45.1,75.4 43.1,80.6 	"/>
	<path fill="#4D2465" d="M38.7,62.4l2.6-0.6c-0.2-0.1-0.5-0.2-0.9-0.2C39.6,61.6,39.1,61.9,38.7,62.4z"/>
	<path fill="#4D2465" d="M38.2,64v0.3l3.9,1.1v-1.8c0-0.6-0.2-1.2-0.5-1.5l-3.2,0.8C38.3,63.2,38.2,63.6,38.2,64z"/>
	<polygon fill="#4D2465" points="57.2,72.1 53.4,72.1 53.4,69 49.5,67.9 49.5,72.1 46.4,72.1 45.3,75 58.2,86.5 	"/>
	<polygon fill="#4D2465" points="63.6,27.2 63.3,27.2 54.6,31.1 55.8,47.2 	"/>
	<polygon fill="#4D2465" points="38.2,67.9 42.1,65.8 38.2,64.7 	"/>
	<polygon fill="#4D2465" points="62.5,27.1 54.3,26.8 54.6,30.7 	"/>
	<polygon fill="#4D2465" points="38.2,68.8 45,74.8 46,72.1 42.1,72.1 42.1,66.2 38.2,68.3 	"/>
	<polygon fill="#4D2465" points="55.8,48.1 56.4,56.3 68.9,49.3 55.8,48 	"/>
	<path fill="#4D2465" d="M30.5,72l0.5-1.1v-4.6l-1.1-1.4L27,65.5v6.5h-6.7c0.2,1.6,0.5,3.2,0.9,4.8L30.5,72z"/>
	<path fill="#4D2465" d="M21.1,53.6l18.5-3.4l1.5-3.6l-17.1-1.7C22.7,47.7,21.8,50.6,21.1,53.6z"/>
	<polygon fill="#4D2465" points="41.7,45.9 55.4,47.2 54.2,31.2 46.4,34.8 	"/>
	<polygon fill="#4D2465" points="38.3,91.7 42.7,80.6 35.7,72.1 31.1,72.1 30.8,72.2 25,86.2 38.2,91.7 	"/>
	<polygon fill="#4D2465" points="41.3,45.9 45.9,35 25.1,44.3 	"/>
	<path fill="#4D2465" d="M57.4,101.7l-16.4,4.2c1,0.7,2.1,1.4,3.2,2.1L57.4,101.7z"/>
	<path fill="#4D2465" d="M29,94L37,92l-12.1-5C26.1,89.4,27.5,91.8,29,94z"/>
	<path fill="#4D2465" d="M40.5,105.7l18.1-4.6l-20.2-8.4l-3.3,8.4C36.8,102.7,38.6,104.2,40.5,105.7z"/>
	<path fill="#4D2465" d="M81.1,18.8l4.4-2c-1.8-0.6-3.6-1-5.4-1.4L81.1,18.8z"/>
	<path fill="#4D2465" d="M58.7,101.7l0.2-0.3l-14.4,6.8c1.6,0.9,3.2,1.8,4.9,2.5L58.7,101.7z"/>
	<path fill="#4D2465" d="M86,16.9l1.3,10.9l18,0.8C99.9,23.4,93.3,19.3,86,16.9z"/>
	<polygon fill="#4D2465" points="64.5,26.8 83.4,27.7 80.9,19.3 64.3,26.7 	"/>
	<path fill="#4D2465" d="M63.2,25.7l-2.8-10.3c-2.2,0.4-4.4,1-6.6,1.8L63.2,25.7z"/>
	<path fill="#4D2465" d="M49.5,26.2l3.7-8.8c-5.4,1.9-10.3,4.8-14.7,8.3L49.5,26.2z"/>
	<path fill="#4D2465" d="M60.8,15.3l3,10.9l0.2,0.2l4.7-11.9C65.9,14.5,63.3,14.8,60.8,15.3z"/>
	<polygon fill="#4D2465" points="54.2,30.8 53.9,26.7 49.8,26.6 46.6,34.3 	"/>
	<path fill="#4D2465" d="M64.6,107.6l-4.4,1.8l0.4,4.9c3.1,0.6,6.4,0.9,9.7,0.9c0.2,0,0.4,0,0.7,0L64.6,107.6z"/>
	<path fill="#4D2465" d="M104.7,38.3l7.5-1.4c-1.9-2.9-4.1-5.5-6.5-7.9L104.7,38.3z"/>
	<path fill="#4D2465" d="M120.1,72.5l-0.7,0.2l-19.3,9.2l15.8,4.5C117.9,82,119.4,77.4,120.1,72.5z"/>
	<path fill="#4D2465" d="M64.4,26.3l16.4-7.4l-1.1-3.6c-3.1-0.6-6.2-0.9-9.4-0.9c-0.4,0-0.8,0-1.2,0L64.4,26.3z"/>
	<path fill="#4D2465" d="M119.5,54.2l-10.4-1l-6.3,6.1l17.4,12.4c0.3-2.2,0.5-4.5,0.5-6.8C120.7,61.2,120.3,57.6,119.5,54.2z"/>
	<path fill="#4D2465" d="M24.4,44.2l21.7-9.7l3.3-7.9L38,26v0c-5.9,4.9-10.7,11.1-13.8,18.2L24.4,44.2z"/>
	<path fill="#4D2465" d="M57.9,103l-8.2,8c0.9,0.4,1.8,0.8,2.7,1.1L57.9,103z"/>
	<path fill="#4D2465" d="M103,91.9l2.6,8.8c4.1-4,7.5-8.8,10-14L103,91.9z"/>
	<polygon fill="#4D2465" points="98,39.5 104.3,38.4 105.3,29.5 	"/>
	<path fill="#4D2465" d="M38,92.5l-8.5,2.1c1.6,2.2,3.4,4.2,5.3,6.1L38,92.5z"/>
	<polygon fill="#4D2465" points="59.6,101.5 60.2,109.1 64.4,107.3 	"/>
	<polygon fill="#4D2465" points="100.1,82.2 102.4,89.8 115.1,86.5 	"/>
	<path fill="#4D2465" d="M59.8,109.6l-6.7,2.7c2.3,0.8,4.6,1.5,7.1,2L59.8,109.6z"/>
	<polygon fill="#4D2465" points="69.2,105.4 60.3,101.7 64.8,107.2 	"/>
	<polygon fill="#4D2465" points="102.5,90.1 102.9,91.6 113.2,87.4 	"/>
	<path fill="#4D2465" d="M86.6,112.6l-16.9-7l-4.6,1.9l6.4,7.8C76.7,115.2,81.8,114.2,86.6,112.6z"/>
	<path fill="#4D2465" d="M102.7,92.1l-4.1,1.7l-1.5,13.8c3-1.9,5.7-4.1,8.3-6.5L102.7,92.1z"/>
	<polygon fill="#4D2465" points="56.2,47.2 68.5,44.9 63.8,27.8 	"/>
	<path fill="#4D2465" d="M104.7,38.7l-1,9l13.1-2.4c-1.2-2.8-2.6-5.5-4.3-8L104.7,38.7z"/>
	<polygon fill="#4D2465" points="83.9,28.1 87.2,39 88.2,38.4 87,28.2 	"/>
	<polygon fill="#4D2465" points="49.5,89 42.9,81 38.8,91.6 	"/>
	<polygon fill="#4D2465" points="88.6,38.6 89,41.2 97.5,39.6 104.9,29.4 	"/>
	<polygon fill="#4D2465" points="88.6,38.2 104.9,29 87.4,28.2 	"/>
	<polygon fill="#4D2465" points="44.8,75.1 38.2,69.3 38.2,72.1 36.2,72.1 42.8,80.2 	"/>
	<polygon fill="#4D2465" points="68.8,44.8 80.6,42.7 80.7,42.6 64.1,27.5 	"/>
	<polygon fill="#4D2465" points="93.8,80.4 94.2,84.2 99,81.9 	"/>
	<polygon fill="#4D2465" points="81.2,19.1 83.8,27.7 86.9,27.8 85.6,17.1 	"/>
	<polygon fill="#4D2465" points="100,77.4 98.8,77.7 99.7,80.7 	"/>
	<polygon fill="#4D2465" points="101.9,60.2 95.4,66.5 98.6,77 100.1,76.6 	"/>
	<polygon fill="#4D2465" points="99.6,81.7 98.4,77.8 93.6,79 93.7,80 99.5,81.7 	"/>
	<path fill="#4D2465" d="M103.2,48.2l-8.5,1.6c0,0.2,0.1,0.5,0.1,0.7c0,0.2,0,0.4-0.1,0.5l8.1,0.8L103.2,48.2z"/>
	<path fill="#4D2465" d="M102,59.6l-8.5-6.1c-0.5,0.4-1,0.7-1.7,0.9l1,3.3h1.6V63l0.9,3.1L102,59.6L102,59.6z"/>
	<path fill="#4D2465" d="M104.3,38.8l-6.5,1.2l-5,7c0.9,0.5,1.6,1.4,1.9,2.5l8.7-1.6L104.3,38.8z"/>
	<path fill="#4D2465" d="M102.8,52.5l-8.2-0.8c-0.1,0.4-0.3,0.8-0.6,1.2l8.1,5.8L102.8,52.5z"/>
	<polygon fill="#4D2465" points="81.4,42.2 86.8,39.2 83.5,28 64.9,27.2 	"/>
	<polygon fill="#4D2465" points="94.8,92.1 82.6,95.2 83.8,99.4 95.1,94.8 	"/>
	<polygon fill="#4D2465" points="100.4,77.3 100,81.5 117.6,73.1 	"/>
	<polygon fill="#4D2465" points="102.3,59.8 100.5,76.5 119.3,71.9 	"/>
	<polygon fill="#4D2465" points="102.1,90.2 98.9,91 98.7,93.3 102.6,91.7 	"/>
	<polygon fill="#4D2465" points="99,90.6 102,89.9 99.9,82.6 	"/>
	<path fill="#4D2465" d="M116.9,45.6l-7,6.8l9.5,0.9C118.7,50.7,117.9,48.1,116.9,45.6z"/>
	<polygon fill="#4D2465" points="116.2,45.7 103.6,48.1 103.2,51.8 109.4,52.4 	"/>
	<polygon fill="#4D2465" points="103.1,52.6 102.4,59 102.5,59 108.7,53.1 	"/>
	<polygon fill="#4D2465" points="59.8,109.2 59.3,101.7 59,102 52.9,112 	"/>
	<polygon fill="#4D2465" points="50,89.6 39.4,92.2 58.6,100.2 	"/>
	<polygon fill="#4D2465" points="58.7,87.5 58.6,87.5 59.5,100.3 64.3,92.4 	"/>
	<polygon fill="#4D2465" points="58.3,87.6 50.4,89.5 59.2,100.3 	"/>
	<polygon fill="#4D2465" points="75.8,102.7 70.9,98.3 60.4,100.9 70.1,105 	"/>
	<polygon fill="#4D2465" points="76.1,102.9 70.6,105.2 85.7,111.5 	"/>
	<polygon fill="#4D2465" points="66.4,94.3 64.6,92.7 59.8,100.6 59.9,100.5 	"/>
	<polygon fill="#4D2465" points="83.5,99.9 76.5,102.8 86.8,111.9 	"/>
</g>
</svg>
